<svg width="46" height="48" viewBox="0 0 46 48" fill="none" xmlns="http://www.w3.org/2000/svg">
<g clip-path="url(#clip0)">
<path fill-rule="evenodd" clip-rule="evenodd" d="M15.1181 16.6822C23.4962 5.92147 39.9079 21.5869 45.7682 4.76074C37.6606 11.76 18.9406 -1.39199 15.1181 16.6822ZM10.6191 28.0495C12.2686 23.8167 13.7435 19.5971 17.5399 18.6197C23.7711 17.0182 32.4635 20.9542 37.2417 17.4633C33.537 27.0371 27.646 24.8291 23.0511 24.7855C17.5922 24.7375 16.3399 29.0837 15.537 33.6437C13.4642 32.112 11.8584 30.3317 10.6191 28.0495Z" fill="#E30613"/>
<path fill-rule="evenodd" clip-rule="evenodd" d="M0.137695 47.6945C4.8766 47.3236 7.33333 39.4255 8.36751 34.6778C4.9726 30.9949 2.89551 26.0771 2.89551 20.6705C2.89115 9.25527 12.1464 0 23.5617 0C27.4322 0 31.0541 1.06473 34.1479 2.91491C31.6388 1.57964 28.7806 0.824727 25.7522 0.824727C15.7377 0.824727 7.62133 9.08509 7.62133 19.2742C7.62133 29.4633 15.7421 37.7236 25.7522 37.7236C35.7711 37.7236 43.8875 29.4633 43.8875 19.2742C43.8875 17.5244 43.6475 15.8313 43.1981 14.2255C43.8613 16.2545 44.2235 18.4189 44.2235 20.6705C44.2235 32.0858 34.9726 41.3411 23.553 41.3411C19.8221 41.3411 16.3181 40.3549 13.2941 38.6182C11.4177 45.7876 10.4446 49.0691 0.137695 47.6945Z" fill="#006A97"/>
</g>
<defs>
<clipPath id="clip0">
<rect width="45.6262" height="48" fill="white" transform="translate(0.137695)"/>
</clipPath>
</defs>
</svg>
