<svg width="24" height="24" viewBox="0 0 24 24" fill="none" xmlns="http://www.w3.org/2000/svg">
<path fill-rule="evenodd" clip-rule="evenodd" d="M16.5263 3.00005L7.45716 3C4.28763 3 2.00098 5.56151 2.00098 8.85897V15.141C2.00098 18.4385 4.28763 21 7.45716 21H16.5178C18.0402 20.9829 19.4812 20.3421 20.5135 19.2266C21.5459 18.111 22.0796 16.6183 21.9903 15.0959L21.9916 8.85897C22.0796 7.38171 21.5459 5.88895 20.5135 4.77344C19.4812 3.65794 18.0402 3.01705 16.5263 3.00005ZM7.45716 4.52843L16.5094 4.52838C17.6083 4.54072 18.6542 5.00592 19.4036 5.81562C20.1529 6.62533 20.5403 7.70887 20.4755 8.81389L20.4741 15.141C20.5403 16.2911 20.1529 17.3747 19.4036 18.1844C18.6542 18.9941 17.6083 19.4593 16.5094 19.4716L7.45716 19.4716C5.16377 19.4716 3.51842 17.6284 3.51842 15.141V8.85897C3.51842 6.37155 5.16377 4.52843 7.45716 4.52843ZM18.025 8.63837C17.7632 8.30886 17.2857 8.25555 16.9586 8.5193L12.8593 11.8242L12.7418 11.9068C12.2584 12.2095 11.6238 12.1816 11.1608 11.8181L7.03154 8.51731L6.93861 8.4536C6.61834 8.26727 6.20239 8.34031 5.96559 8.64086C5.7051 8.97146 5.76001 9.45216 6.08824 9.71453L10.2227 13.0195L10.384 13.1375C11.4241 13.8459 12.8023 13.8067 13.7998 13.0236L17.9068 9.71255L17.9892 9.63551C18.241 9.36261 18.2631 8.93792 18.025 8.63837Z" fill="#5E8697"/>
</svg>
