<svg width="19" height="18" viewBox="0 0 19 18" fill="none" xmlns="http://www.w3.org/2000/svg">
<path fill-rule="evenodd" clip-rule="evenodd" d="M12.7505 2.0625H6.24875C3.983 2.0625 2.5625 3.66675 2.5625 5.937V12.063C2.5625 14.3332 3.97625 15.9375 6.24875 15.9375H12.7498C15.023 15.9375 16.4375 14.3332 16.4375 12.063V5.937C16.4375 3.66675 15.023 2.0625 12.7505 2.0625Z" stroke="#01364D" stroke-width="1.5" stroke-linecap="round" stroke-linejoin="round"/>
<path fill-rule="evenodd" clip-rule="evenodd" d="M8.51846 8.99984C8.51846 9.76634 7.89671 10.3888 7.12946 10.3888C6.36296 10.3888 5.74121 9.76634 5.74121 8.99984C5.74121 8.23334 6.36296 7.61084 7.12946 7.61084C7.89671 7.61084 8.51846 8.23334 8.51846 8.99984Z" stroke="#01364D" stroke-width="1.5" stroke-linecap="round" stroke-linejoin="round"/>
<path d="M8.51855 9H13.2571V10.389" stroke="#01364D" stroke-width="1.5" stroke-linecap="round" stroke-linejoin="round"/>
<path d="M11.1357 10.3885V8.99951" stroke="#01364D" stroke-width="1.5" stroke-linecap="round" stroke-linejoin="round"/>
</svg>
