<svg width="24" height="24" viewBox="0 0 24 24" fill="none" xmlns="http://www.w3.org/2000/svg">
<path fill-rule="evenodd" clip-rule="evenodd" d="M12 2C17.5228 2 22 6.47716 22 12C22 17.5228 17.5228 22 12 22C6.47716 22 2 17.5228 2 12C2 6.47716 6.47716 2 12 2Z" stroke="white" stroke-width="1.5" stroke-linecap="round" stroke-linejoin="round"/>
<path fill-rule="evenodd" clip-rule="evenodd" d="M15.0497 12.4668C14.3207 13.2528 12.3367 14.5828 11.3217 15.0098C11.1597 15.0778 10.7467 15.2218 10.6577 15.2238C10.4687 15.2298 10.2867 15.1238 10.1987 14.9538C10.1647 14.8878 10.0647 14.4568 10.0327 14.2648C9.93766 13.6808 9.88866 12.7738 9.88966 11.8618C9.88866 10.9048 9.94166 9.95483 10.0477 9.37683C10.0757 9.22083 10.1577 8.86183 10.1817 8.80383C10.2267 8.69583 10.3087 8.61083 10.4077 8.55783C10.4837 8.51683 10.5707 8.49483 10.6577 8.49783C10.7467 8.49983 11.1087 8.62683 11.2327 8.67583C12.2107 9.05583 14.2797 10.4338 15.0397 11.2438C15.1077 11.3168 15.2947 11.5128 15.3257 11.5528C15.3967 11.6428 15.4317 11.7518 15.4317 11.8618C15.4317 11.9638 15.4007 12.0678 15.3367 12.1548C15.3037 12.1998 15.1127 12.3998 15.0497 12.4668Z" stroke="white" stroke-width="1.5" stroke-linecap="round" stroke-linejoin="round"/>
</svg>
